<?xml version="1.0" encoding="UTF-8" standalone="no"?>
<!-- Created with Inkscape (http://www.inkscape.org/) -->

<svg
   xmlns:dc="http://purl.org/dc/elements/1.1/"
   xmlns:cc="http://creativecommons.org/ns#"
   xmlns:rdf="http://www.w3.org/1999/02/22-rdf-syntax-ns#"
   xmlns:svg="http://www.w3.org/2000/svg"
   xmlns="http://www.w3.org/2000/svg"
   xmlns:sodipodi="http://sodipodi.sourceforge.net/DTD/sodipodi-0.dtd"
   xmlns:inkscape="http://www.inkscape.org/namespaces/inkscape"
   width="1183.8877"
   height="1061.52"
   id="svg2"
   sodipodi:version="0.32"
   inkscape:version="0.48.4 r9939"
   sodipodi:docname="Municipios_de_Chihuahua.svg"
   inkscape:output_extension="org.inkscape.output.svg.inkscape"
   version="1.0">
  <defs
     id="defs4">
    <inkscape:perspective
       sodipodi:type="inkscape:persp3d"
       inkscape:vp_x="0 : 530.76001 : 1"
       inkscape:vp_y="0 : 1000 : 0"
       inkscape:vp_z="1183.8877 : 530.76001 : 1"
       inkscape:persp3d-origin="591.94385 : 353.84001 : 1"
       id="perspective2912" />
  </defs>
  <sodipodi:namedview
     id="base"
     pagecolor="#ffffff"
     bordercolor="#666666"
     borderopacity="1.0"
     inkscape:pageopacity="0.0"
     inkscape:pageshadow="2"
     inkscape:zoom="0.51153063"
     inkscape:cx="257.08914"
     inkscape:cy="491.66167"
     inkscape:document-units="px"
     inkscape:current-layer="layer1"
     inkscape:window-width="1366"
     inkscape:window-height="713"
     inkscape:window-x="0"
     inkscape:window-y="30"
     showgrid="false"
     inkscape:window-maximized="1" />
  <metadata
     id="metadata7">
    <rdf:RDF>
      <cc:Work
         rdf:about="">
        <dc:format>image/svg+xml</dc:format>
        <dc:type
           rdf:resource="http://purl.org/dc/dcmitype/StillImage" />
        <dc:title></dc:title>
      </cc:Work>
    </rdf:RDF>
  </metadata>
  <g
     inkscape:label="Capa 1"
     inkscape:groupmode="layer"
     id="layer1"
     transform="translate(220.76186,6.6183848)">
    <path
       style="fill:#f9f9f9;fill-rule:evenodd;stroke:#000000;stroke-width:0.2;stroke-linecap:butt;stroke-linejoin:miter;stroke-miterlimit:4;stroke-opacity:1;stroke-dasharray:none"
       d="m 32.419203,280.1322 c 25.708218,19.13242 11.879819,-6.81138 29.451338,-9.74395 5.56377,-10.85972 17.275151,-20.07941 30.241391,-11.45574 4.840086,-12.08025 -9.383346,-14.45212 5.047547,-23.83319 13.553201,-9.33335 8.504731,-18.34377 15.581561,-24.97442 9.18897,12.36251 25.32311,1.04178 12.02632,-12.81638 -2.87728,-14.22608 0.2208,-20.82378 -5.26701,-36.28109 C 106.92878,149.5121 106.08072,151.52707 99.773787,135.41515 85.15058,123.87569 99.156264,97.630275 71.518068,107.78179 c -18.795819,2.02375 -42.068795,-3.4333 -58.093349,3.22091 -16.5689745,20.90085 -17.6634251,13.61775 -7.95504,23.49678 -11.2835492,8.5566 36.969945,28.44451 6.536176,25.25213 1.00288,25.57178 -32.014786,5.932 -25.054284,39.14523 13.00116525,10.07681 11.3118538,30.71176 39.648599,31.13998 7.338169,16.46293 0.02815,23.70656 12.929479,37.14731 15.783015,26.74229 -13.485242,-9.31296 -7.110446,12.94807 z"
       id="JANOS"
       inkscape:connector-curvature="0" />
    <path
       style="fill:#f9f9f9;fill-rule:evenodd;stroke:#000000;stroke-width:0.2;stroke-linecap:butt;stroke-linejoin:miter;stroke-miterlimit:4;stroke-opacity:1;stroke-dasharray:none"
       d="m 397.20324,99.254452 c 4.8825,13.660438 10.65357,27.860738 4.87198,26.905618 -7.05446,12.17976 11.25128,4.71104 15.8888,13.82588 11.54422,7.64822 12.59012,2.58291 8.55888,-9.56839 1.93759,-11.27652 -21.85349,-29.43944 -29.31966,-31.163108 z"
       id="PRAXEDIS G. GUERRERO"
       inkscape:connector-curvature="0" />
    <path
       style="fill:#f9f9f9;fill-rule:evenodd;stroke:#000000;stroke-width:0.2;stroke-linecap:butt;stroke-linejoin:miter;stroke-miterlimit:4;stroke-opacity:1;stroke-dasharray:none"
       d="m 127.00951,290.93785 c -4.04185,7.07162 6.88963,34.58709 8.82221,18.56619 16.04698,7.19348 17.00611,19.62952 41.63226,15.12698 28.80517,8.66307 22.54036,-15.66169 21.13858,-35.41216 5.7557,-23.72514 -9.72769,-32.89993 -29.95776,-31.2145 -14.46298,-7.19809 -25.28715,11.39561 -10.6418,23.25456 6.41367,10.53448 -23.20794,13.20689 -30.99349,9.67893 z"
       id="GALEANA"
       inkscape:connector-curvature="0" />
    <path
       style="fill:#f9f9f9;fill-rule:evenodd;stroke:#000000;stroke-width:0.2;stroke-linecap:butt;stroke-linejoin:miter;stroke-miterlimit:4;stroke-opacity:1;stroke-dasharray:none"
       d="m 131.13533,312.57646 c -20.56643,-0.27235 -0.22511,17.62136 -13.21051,29.90676 -8.15999,29.05497 17.59303,18.17658 9.56752,43.52408 5.36745,15.65058 19.6864,1.9324 28.22237,11.76298 12.76072,19.91263 27.12655,5.3243 33.62106,-0.26335 16.33503,3.07254 21.77336,-10.53373 18.87343,-24.05266 -6.40548,4.2596 -6.65624,-26.72796 -14.48426,-21.77029 -6.67591,3.76399 -0.49508,-16.40155 -12.15801,-20.1463 -5.73879,-14.60561 -36.16951,3.19892 -31.99706,-18.61008 -15.57133,-7.68193 -12.93525,8.24377 -18.43454,-0.35114 z"
       id="IGNACIO ZARAGOZA"
       inkscape:connector-curvature="0" />
    <path
       style="fill:#f9f9f9;fill-rule:evenodd;stroke:#000000;stroke-width:0.2;stroke-linecap:butt;stroke-linejoin:miter;stroke-miterlimit:4;stroke-opacity:1;stroke-dasharray:none"
       d="m 410.50609,368.75786 c -15.70455,11.13836 4.35728,43.14006 -16.59107,41.52157 -3.95518,11.27783 7.27253,24.08278 2.10678,37.0446 -2.90453,9.05886 -28.79594,-1.88657 -25.14995,15.44989 12.38979,8.42035 -3.64304,15.2532 12.55303,25.28162 1.13443,18.0483 16.24459,24.40768 31.90072,31.747 9.87342,5.88374 33.45832,6.89211 32.44453,19.86968 8.63262,-0.63515 10.78783,3.27404 22.41768,0.11721 9.51337,-13.73054 17.67131,-18.9931 29.55011,-29.43687 10.75824,-10.52909 20.54368,8.64656 29.1002,-8.4272 16.2348,11.65736 30.4114,1.50631 42.79443,3.64301 14.77881,16.18489 20.22237,-2.76056 2.59244,-15.44571 -8.12875,-19.70245 -20.09743,-12.68901 -32.87773,-14.09343 -7.78373,-4.63373 -19.45543,-3.53414 -14.35259,-16.50328 17.00414,-8.88202 5.32879,-21.90705 -8.25164,-19.00509 -8.43267,-10.63531 -25.66007,-37.17045 -25.36941,-29.80248 -25.87894,5.71375 -5.39888,-21.31465 -26.99953,-14.74761 -20.37504,2.34229 -9.90173,-28.6344 -33.17151,-24.00192 -19.72338,4.4764 -3.85294,5.09611 -22.69649,-3.21099 z"
       id="ALDAMA"
       inkscape:connector-curvature="0" />
    <path
       style="fill:#f9f9f9;fill-rule:evenodd;stroke:#000000;stroke-width:0.2;stroke-linecap:butt;stroke-linejoin:miter;stroke-miterlimit:4;stroke-opacity:1;stroke-dasharray:none"
       d="m 415.94867,523.16891 c -12.88678,8.45535 -6.48391,12.3956 -6.58376,25.58885 8.63479,2.86059 18.7995,3.5105 22.99926,12.90417 20.17251,-3.39336 2.76802,-15.1916 11.32406,-18.82956 4.85966,-27.1211 -16.39477,-15.3134 -27.73956,-19.66346 z"
       id="AQUILES SERDAN"
       inkscape:connector-curvature="0" />
    <path
       style="fill:#f9f9f9;fill-rule:evenodd;stroke:#000000;stroke-width:0.2;stroke-linecap:butt;stroke-linejoin:miter;stroke-miterlimit:4;stroke-opacity:1;stroke-dasharray:none"
       d="m 134.86613,395.92683 c -8.0553,-17.8388 -8.68123,-26.84393 -16.87307,-40.0538 -5.88651,-9.60235 -37.262259,14.1279 -28.056466,-15.19043 7.090069,-31.18985 -10.532876,-18.91551 -20.676151,-19.10874 -13.075335,-18.99784 -24.337672,11.09371 -35.915848,15.40639 1.840735,14.7378 17.740367,19.86909 -3.862471,28.52962 4.026878,11.65243 -2.907225,24.67766 -0.307242,33.18213 -15.611349,6.29688 4.357663,36.14918 -13.035839,38.80028 3.374659,12.9903 5.111977,21.51068 4.433063,37.00071 -4.880041,19.05941 14.533457,25.55093 10.095095,37.35185 9.331981,2.2661 17.923564,19.91936 23.130935,5.44258 18.19505,12.23365 12.638909,-1.65122 27.081187,-5.39869 29.844447,8.95577 -0.597117,-17.77594 15.976584,-12.20188 8.626633,-2.59779 14.204913,-22.36171 30.548633,-23.41776 -7.70404,-18.00439 -5.99867,-30.08648 18.87956,-24.07308 14.80449,-8.8074 -14.0324,-10.20339 -14.62207,-20.89245 -5.39455,-13.27394 23.15067,-21.11843 7.50549,-27.564 -2.99362,-1.32036 -3.63049,-5.02223 -4.30139,-7.81273 z"
       id="MADERA"
       inkscape:connector-curvature="0" />
    <path
       style="fill:#f9f9f9;fill-rule:evenodd;stroke:#000000;stroke-width:0.2;stroke-linecap:butt;stroke-linejoin:miter;stroke-miterlimit:4;stroke-opacity:1;stroke-dasharray:none"
       d="m 132.84711,433.49813 c 21.07383,-2.36689 38.46463,21.67629 34.32638,14.00146 18.76641,10.36472 15.54592,-61.54389 11.8477,-38.1419 -20.64033,1.01583 -24.12313,-20.42832 -39.85367,-15.18653 -11.97264,2.7581 20.06783,19.42548 -5.2231,24.62325 -1.87575,5.2445 -1.8653,10.19495 -1.09731,14.70372 z"
       id="path2415"
       inkscape:connector-curvature="0" />
    <path
       style="fill:#f9f9f9;fill-rule:evenodd;stroke:#000000;stroke-width:0.2;stroke-linecap:butt;stroke-linejoin:miter;stroke-miterlimit:4;stroke-opacity:1;stroke-dasharray:none"
       d="m 177.35331,444.99776 c -5.34969,16.5256 7.42794,23.14296 1.20744,37.17431 15.25959,11.63097 12.66606,8.54707 10.3217,28.47773 15.90766,10.1268 5.91847,-17.18024 13.79638,-18.02952 -10.94173,-21.86598 19.00977,-15.41471 9.21726,-29.84636 14.0768,-9.10334 32.65445,0.14076 40.10272,-18.03492 3.29922,14.2322 20.90509,9.84304 29.24733,12.43234 10.14267,-15.34463 4.92043,-24.37887 22.55785,-25.64555 0.87398,10.71653 31.9789,17.8946 18.50851,-1.26199 -0.25643,-7.26695 -10.23378,-20.88545 2.16583,-29.33331 5.50048,-20.90402 13.17249,-14.59522 -14.5531,-16.30213 -12.54618,10.72819 -22.64262,1.9308 -36.2296,7.78714 -18.9368,-3.14867 -26.27772,-7.36057 -45.64403,-4.71865 -13.56379,-2.25288 -24.61213,13.29919 -38.01359,9.67841 -16.1527,1.10464 -5.20506,16.40915 -9.72173,29.72943 -1.94108,5.65438 -1.16396,12.37275 -2.96297,17.89307 z"
       id="NAMIQUIPA"
       inkscape:connector-curvature="0" />
    <path
       style="fill:#f9f9f9;fill-rule:evenodd;stroke:#000000;stroke-width:0.2;stroke-linecap:butt;stroke-linejoin:miter;stroke-miterlimit:4;stroke-opacity:1;stroke-dasharray:none"
       d="m 324.47833,442.93485 c -11.07714,18.24226 -6.79196,24.14966 -5.70108,46.6611 -8.24928,27.19288 11.76917,16.7461 24.68259,27.38126 -11.68391,10.65827 26.52713,21.13047 11.08432,31.12219 4.7398,20.12181 16.59013,14.62577 18.85579,34.5694 1.28005,13.24794 -23.03334,37.41952 0.30483,30.65267 15.78124,-9.89194 34.4248,1.40644 37.92676,-17.37359 12.10108,-10.30239 25.67393,-11.3723 28.06156,-19.1329 14.39855,-10.82173 -11.36666,-28.88066 -12.15702,-22.39517 -8.97276,-6.63844 -20.93391,1.11337 -19.18068,-14.3526 -9.58897,-8.97786 21.78055,-20.36926 -2.50183,-24.35989 -22.4395,-3.97331 -13.95599,-24.77875 -27.16897,-30.37308 -8.59604,-18.79697 1.40818,-11.60994 -8.07607,-29.27578 7.97989,-9.59545 28.43226,2.47129 26.99342,-14.92318 1.52228,-13.56033 -15.15031,-31.7345 6.40819,-31.33868 -4.98852,-18.66623 5.54143,-34.62465 7.07416,-51.54805 -11.00289,1.18203 -36.46713,-4.13466 -48.1032,-4.06997 3.58436,22.32874 -19.62776,-6.58345 -30.95336,8.78555 7.84888,6.91167 -25.62675,-17.41598 -8.70901,11.87621 19.7437,11.99162 -5.00088,20.08435 -4.01959,32.9403 -1.13073,14.2918 2.5503,16.5015 6.10095,32.81059 l 0,1.72913 -0.92173,0.61448 -3e-5,10e-6 z"
       id="CHIHUAHUA"
       inkscape:connector-curvature="0" />
    <path
       style="fill:#f9f9f9;fill-rule:evenodd;stroke:#000000;stroke-width:0.2;stroke-linecap:butt;stroke-linejoin:miter;stroke-miterlimit:4;stroke-opacity:1;stroke-dasharray:none"
       d="m 389.7892,607.83602 c 0.23803,11.59402 21.69909,8.96924 14.7476,25.23774 12.5599,5.43106 16.07751,22.60643 27.96922,10.98777 21.17386,-11.7374 8.75307,-27.80377 32.42578,-36.66442 20.48598,-14.47204 -11.11893,-23.7393 -15.66934,-40.73151 8.72838,-3.16297 36.13186,-13.87167 18.5662,-22.60423 -14.33857,-9.47753 -13.45873,-3.98979 -23.74543,1.14118 -6.47456,0.90415 2.82583,10.79605 -4.13753,17.83442 4.38805,17.91879 -2.70923,17.34257 -14.86758,25.5306 -21.48379,-2.10524 -12.75869,29.28253 -35.24504,19.26846 l -0.0439,0 2e-5,-1e-5 z"
       id="ROSALES"
       inkscape:connector-curvature="0" />
    <path
       style="fill:#f9f9f9;fill-rule:evenodd;stroke:#000000;stroke-width:0.2;stroke-linecap:butt;stroke-linejoin:miter;stroke-miterlimit:4;stroke-opacity:1;stroke-dasharray:none"
       d="m 450.7109,628.55291 c 9.54123,16.15581 27.29767,-8.75847 35.87474,-8.44872 4.53585,-2.43745 7.11817,-22.87604 0.16036,-32.85338 -15.25524,1.96352 -13.47194,17.111 -27.36761,23.26122 -7.0682,3.00448 -18.25306,11.66471 -8.66749,18.04088 z"
       id="DELICIAS"
       inkscape:connector-curvature="0" />
    <path
       style="fill:#f9f9f9;fill-rule:evenodd;stroke:#000000;stroke-width:0.2;stroke-linecap:butt;stroke-linejoin:miter;stroke-miterlimit:4;stroke-opacity:1;stroke-dasharray:none"
       d="m 485.12201,587.33859 c 13.20859,-11.75035 -17.10944,-14.87106 -6.84711,-21.98975 -0.81101,-20.60525 -40.07926,0.76298 -22.48786,11.57292 6.70965,11.35889 18.93346,22.30026 28.06209,10.9874 l 0.79005,-0.5267 0.48281,-0.0439 2e-5,3e-5 z"
       id="Meoqui"
       inkscape:connector-curvature="0" />
    <path
       style="fill:#f9f9f9;fill-rule:evenodd;stroke:#000000;stroke-width:0.2;stroke-linecap:butt;stroke-linejoin:miter;stroke-miterlimit:4;stroke-opacity:1;stroke-dasharray:none"
       d="m 491.09128,593.61511 c 12.70731,-10.08144 20.85638,-18.88653 34.04844,-12.47721 11.24591,22.37718 24.67929,-12.75129 33.43987,11.44121 11.19359,8.9425 24.45311,-22.21248 22.4897,-18.89082 5.03074,-5.95143 8.59874,-29.33115 0.054,-30.20708 6.78924,-9.57741 28.83951,-11.48704 14.69365,-25.0087 -4.77266,-6.89481 -19.65298,-8.63344 -30.28847,-11.09233 -7.04183,-0.5328 -30.72604,-1.98396 -40.40457,-0.28305 -7.31274,7.35515 -17.49503,-6.7659 -27.6244,4.48438 -10.06031,11.811 -22.46771,15.65779 -29.6708,32.47987 6.95956,4.40287 14.1835,28.04667 7.37381,24.57936 12.20876,3.18235 9.00713,15.37837 15.31821,21.33135 l 0.43892,3.07242 0.13167,0.5706 0,0 z"
       id="JULIMES"
       inkscape:connector-curvature="0" />
    <path
       style="fill:#f9f9f9;fill-rule:evenodd;stroke:#000000;stroke-width:0.2;stroke-linecap:butt;stroke-linejoin:miter;stroke-miterlimit:4;stroke-opacity:1;stroke-dasharray:none"
       d="m 433.94427,642.51048 c -2.39266,16.25831 -10.51905,23.83122 4.30139,34.12733 9.76102,4.96564 26.45083,-0.38574 43.57474,-3.64355 16.68439,-4.65256 25.39913,-10.12004 18.14877,-25.70979 8.14045,-9.2081 26.71567,-13.17162 29.70293,-23.55965 11.6929,-2.12359 42.37211,13.22412 33.54063,0.1672 -17.06208,-12.77034 -19.48986,-23.41564 -4.17708,-30.54026 -9.1163,-26.52321 -22.58086,10.52237 -32.34819,-11.98244 -14.07549,-6.54272 -22.10744,1.39167 -35.37672,12.33357 -4.28657,14.73678 3.73948,23.13193 -7.68105,32.04093 -13.09817,-4.6333 -24.92187,15.9364 -38.3006,6.21192 -4.92022,2.23392 -7.7568,6.7942 -11.38482,10.55474 z"
       id="SAUCILLO"
       inkscape:connector-curvature="0" />
    <path
       style="fill:#f9f9f9;fill-rule:evenodd;stroke:#000000;stroke-width:0.2;stroke-linecap:butt;stroke-linejoin:miter;stroke-miterlimit:4;stroke-opacity:1;stroke-dasharray:none"
       d="m 360.29397,610.68898 c -14.19602,-8.91206 -6.11945,16.53188 -14.70372,17.64448 -15.41269,8.67408 8.24502,5.99679 5.22311,12.11409 19.67625,-0.99084 4.56459,25.88668 4.65252,21.02414 -12.63434,2.51272 -23.92321,1.68709 -31.64591,6.97878 1.39903,8.67683 -19.77978,17.52549 -3.64301,15.23042 13.77228,-2.7068 7.23409,8.58544 11.98246,17.82005 -10.1306,13.73785 18.3964,13.23247 24.00877,23.13094 14.41647,11.21927 12.86767,-6.05713 25.58887,-0.92174 -21.55627,-11.02648 5.75781,-21.92333 -0.92173,-26.20337 -15.78494,-1.56893 11.35646,-25.81116 17.4415,-20.04463 7.29137,13.05046 16.97914,-4.18301 31.10274,6.65766 19.3935,-10.48398 -6.12969,-11.94742 0.28467,-26.86542 16.22814,-19.39498 -6.65824,-3.79831 -12.13542,-13.47105 -13.23244,-7.25276 -11.34344,-16.4755 -18.34672,-28.70521 -7.31785,-4.57664 -20.99473,-4.20109 -35.52516,-1.76576 l -2.51021,-1.95822 -0.85269,-0.66519 -7e-5,3e-5 z"
       id="path2479"
       inkscape:connector-curvature="0" />
    <path
       style="fill:#f9f9f9;fill-rule:evenodd;stroke:#000000;stroke-width:0.2;stroke-linecap:butt;stroke-linejoin:miter;stroke-miterlimit:4;stroke-opacity:1;stroke-dasharray:none"
       d="m 381.75702,723.71015 c 11.68182,-3.1924 18.4767,10.90137 3.42355,13.65032 -4.95637,11.02512 11.32832,2.46941 13.56254,15.97657 7.8724,-2.75707 14.60284,-3.67939 9.78787,-18.12727 8.9492,3.48297 8.78878,8.26161 20.14629,6.58375 7.28594,15.8112 13.49464,6.81026 15.46024,-6.56467 12.83075,-10.65241 23.98665,21.56549 27.3879,-0.75574 7.56086,-1.55405 18.34655,-12.89326 12.41153,-20.63862 -8.9098,-13.80395 -3.67986,-26.00567 -24.66714,-32.34818 -16.75474,-11.6407 -25.40783,0.68962 -35.72787,1.66788 -15.93883,-4.51662 -19.18903,1.30147 -32.24697,-6.32578 -3.9749,6.91863 -28.80991,21.14327 -6.46552,20.98562 -12.82247,12.81266 -18.92589,10.493 -3.07242,25.89612 z"
       id="path2484"
       inkscape:connector-curvature="0" />
    <path
       style="fill:#f9f9f9;fill-rule:evenodd;stroke:#000000;stroke-width:0.2;stroke-linecap:butt;stroke-linejoin:miter;stroke-miterlimit:4;stroke-opacity:1;stroke-dasharray:none"
       d="m 502.94204,664.36855 c 8.6025,6.44088 29.80948,-5.58526 39.41476,0.0878 -2.78222,13.3521 25.55361,-15.20786 35.72786,-10.00731 -15.24132,-6.80583 -10.71817,-25.78283 -28.06378,-30.51077 -16.88003,2.34212 -20.09954,2.646 -39.3539,12.8224 0.8085,12.7454 -20.03292,4.03591 -7.72494,27.6079 z"
       id="path2489"
       inkscape:connector-curvature="0" />
    <path
       style="fill:#f9f9f9;fill-rule:evenodd;stroke:#000000;stroke-width:0.2;stroke-linecap:butt;stroke-linejoin:miter;stroke-miterlimit:4;stroke-opacity:1;stroke-dasharray:none"
       d="m 484.06861,726.16808 c 19.80386,11.66722 15.89603,-6.08097 27.75394,-15.42883 17.67333,-3.03141 -20.60893,-20.34809 -7.04599,-31.06669 4.73213,-0.87559 -1.22308,-27.43535 -10.6347,-10.71949 -4.41158,5.87287 -52.98802,4.90598 -23.21303,17.86536 7.41807,10.80084 10.3243,20.80051 14.54431,31.88808 1.46964,5.68774 -7.80609,1.74077 -1.40453,7.46157 z"
       id="path2494"
       inkscape:connector-curvature="0" />
    <path
       style="fill:#f9f9f9;fill-rule:evenodd;stroke:#000000;stroke-width:0.2;stroke-linecap:butt;stroke-linejoin:miter;stroke-miterlimit:4;stroke-opacity:1;stroke-dasharray:none"
       d="m 504.25879,717.0825 c 7.60797,3.02634 6.24343,14.23652 15.62157,13.63417 5.14426,-9.89824 28.44755,3.09711 38.82783,-11.64195 10.04913,1.27 8.08907,-9.18234 23.72173,-4.88906 15.40739,4.26141 22.35573,1.33146 35.64756,-4.18636 15.37711,-17.8777 20.59665,-7.64728 35.10588,-13.85313 9.61175,3.66652 48.60335,-9.5714 46.78857,-2.50183 -1.07853,-12.28335 -8.28178,-27.39993 -4.16972,-39.06362 -13.75733,-14.53142 6.89551,-28.8905 4.81729,-41.8965 7.13053,-18.59554 20.27405,-38.49669 30.16441,-54.66527 1.32295,-16.10465 14.42249,-25.29695 -6.14484,-20.23408 -20.87626,7.9661 -41.2484,-8.81394 -40.0515,-1.45717 -9.41113,24.79256 -8.84668,-31.52523 -21.04577,-11.27143 -12.47662,-13.91425 -14.23722,4.92148 -21.81463,13.70817 -16.68878,-2.65432 -15.10749,-9.46012 -19.57525,-22.61819 -7.50981,-10.93131 -38.00786,1.69466 -20.36576,13.6738 -16.3137,6.39019 -21.94726,13.01062 -16.30561,21.98782 -2.97702,14.98044 3.29206,27.35958 -12.45328,31.23 -0.60944,18.53347 -24.30707,11.56136 -25.85813,20.15713 6.33116,18.97752 25.01668,20.34584 15.20226,33.56569 14.2126,17.62691 16.77544,15.32022 -5.31089,25.67665 -20.44653,12.13921 -12.36297,-4.46187 -35.51765,2.42295 -23.87469,-10.16722 -15.16157,36.15277 -17.24019,19.30345 -3.069,19.2836 27.33359,21.9763 0.8133,31.63299 l -0.8572,1.2858 2e-5,-3e-5 z"
       id="CAMARGO"
       inkscape:connector-curvature="0" />
    <path
       style="fill:#f9f9f9;fill-rule:evenodd;stroke:#000000;stroke-width:0.2;stroke-linecap:butt;stroke-linejoin:miter;stroke-miterlimit:4;stroke-opacity:1;stroke-dasharray:none"
       d="m 528.39924,727.08981 c 13.61852,17.38413 4.42147,21.70191 12.42134,38.75638 -10.01331,10.21081 1.50741,22.12805 13.91483,28.7304 6.48696,13.69608 29.30034,6.53197 26.48353,29.54745 4.62897,15.19701 2.73171,22.32092 -9.23524,33.32416 -21.0146,14.73576 12.30187,4.62992 16.63497,21.02413 6.4134,16.7147 26.7132,11.12271 24.99899,-9.44717 1.63395,-19.36687 20.03311,-24.5088 29.20728,-37.95588 -13.35477,-12.70148 3.13488,-22.84292 13.99606,-8.05128 20.29072,8.50063 23.36405,-1.53673 43.10393,2.76327 24.64392,9.04575 29.39884,2.25374 10.97605,-14.55105 -21.95241,-10.76281 15.45879,-22.61963 4.74031,-36.43012 -6.81117,-11.32189 -22.99357,-42.28357 -15.82766,-38.91921 -8.49051,-8.80907 16.70659,-42.40875 -10.51349,-38.06686 -18.77482,-1.85765 -36.78581,4.44473 -47.76352,0.16433 -10.23802,-10.8648 -24.65443,28.76174 -37.42418,13.17876 -6.25094,18.92137 -23.72671,-8.52232 -35.72785,2.37015 5.2199,13.7639 -17.2862,-6.82841 -24.1367,14.81691 -4.51797,6.0077 -10.41602,-5.3101 -15.84865,-1.25437 z"
       id="JIMENEZ"
       inkscape:connector-curvature="0" />
    <path
       style="fill:#f9f9f9;fill-rule:evenodd;stroke:#000000;stroke-width:0.2;stroke-linecap:butt;stroke-linejoin:miter;stroke-miterlimit:4;stroke-opacity:1;stroke-dasharray:none"
       d="m 196.88512,508.07016 c 10.76741,4.38063 20.45775,9.58656 20.05851,17.42502 10.52085,11.40201 15.01432,4.11117 16.19606,-7.68104 -1.01487,-13.06896 17.98666,-9.01229 11.23629,-23.74544 -9.58929,-9.06454 -13.1346,-18.20519 -21.068,-28.39794 -17.67171,-16.57966 -2.73895,13.98789 -18.30284,7.68105 -8.09622,9.86599 -0.35329,23.3642 -8.03219,33.26991 l -0.17556,0.96562 0.0878,0.48281 -7e-5,10e-6 z"
       id="path2433"
       inkscape:connector-curvature="0" />
    <path
       style="fill:#f9f9f9;fill-rule:evenodd;stroke:#000000;stroke-width:0.2;stroke-linecap:butt;stroke-linejoin:miter;stroke-miterlimit:4;stroke-opacity:1;stroke-dasharray:none"
       d="m 324.61001,565.26106 c 13.55445,12.60931 3.67182,11.17758 15.36209,27.69567 7.90662,6.43735 17.67357,6.85845 20.23405,17.68834 12.39249,-10.20772 14.82145,-27.71765 10.30843,-41.61973 -8.47799,-1.63284 -20.3728,-12.62698 -32.86852,-7.55514 -5.97823,9.81049 -8.58151,-5.82224 -13.03605,3.79086 z"
       id="path2452"
       inkscape:connector-curvature="0" />
    <path
       style="fill:#f9f9f9;fill-rule:evenodd;stroke:#000000;stroke-width:0.2;stroke-linecap:butt;stroke-linejoin:miter;stroke-miterlimit:4;stroke-opacity:1;stroke-dasharray:none"
       d="m 342.21059,595.63412 c -14.89061,9.46584 -17.49921,3.97281 -23.3065,23.3065 -12.44851,-15.18296 -3.8639,10.40364 -2.01902,16.19605 -11.51337,13.88471 17.75928,-2.17868 10.72294,20.42798 -10.6613,18.48581 10.54671,1.46162 18.50894,10.91071 10.95034,-8.54778 15.57553,-10.20284 13.34308,-22.38477 -4.49233,-10.3111 -14.7487,-1.94978 -19.66349,-12.68469 14.1263,-3.38643 7.63138,-11.98818 12.68471,-22.03364 14.78058,-7.93138 -4.38561,-10.97495 -10.27066,-13.73814 z"
       id="path2460"
       inkscape:connector-curvature="0" />
    <path
       style="fill:#f9f9f9;fill-rule:evenodd;stroke:#000000;stroke-width:0.2;stroke-linecap:butt;stroke-linejoin:miter;stroke-miterlimit:4;stroke-opacity:1;stroke-dasharray:none"
       d="m 309.2918,571.01087 c 7.38431,16.18982 -19.03499,0.005 -8.95391,17.16166 17.93967,-5.47648 3.74395,11.09432 17.55669,14.48426 7.474,-2.92865 26.2703,3.53461 22.86758,-11.6313 -16.62898,-14.50564 0.78534,-15.92298 -18.17116,-25.36941 -6.74296,-4.44501 -17.70012,-3.6734 -13.2992,5.35479 z"
       id="path2465"
       inkscape:connector-curvature="0" />
    <path
       style="fill:#f9f9f9;fill-rule:evenodd;stroke:#000000;stroke-width:0.2;stroke-linecap:butt;stroke-linejoin:miter;stroke-miterlimit:4;stroke-opacity:1;stroke-dasharray:none"
       d="m 253.28597,573.5127 c -5.39375,8.99269 -27.65568,6.60361 -23.39428,20.36575 8.22279,7.46913 -5.18687,32.49265 8.11997,14.96707 7.26764,-14.18792 1.77027,3.34165 11.36795,5.88147 -2.02072,12.72796 17.5499,-6.89739 23.78931,4.60861 13.32577,4.65548 26.92045,-11.05853 39.571,4.37439 -8.80744,-16.16922 24.41129,-1.10706 6.55919,-20.04374 -16.27659,-2.7841 0.6822,-21.81024 -18.78565,-14.13312 -10.55372,-18.33865 14.98423,-2.52252 9.08558,-18.30285 -9.82231,7.92699 -22.61795,2.14175 -29.93415,6.05708 -5.98388,-1.07127 -28.43312,5.88802 -26.37892,-3.77466 z"
       id="path2471"
       inkscape:connector-curvature="0" />
    <path
       style="fill:#f9f9f9;fill-rule:evenodd;stroke:#000000;stroke-width:0.2;stroke-linecap:butt;stroke-linejoin:miter;stroke-miterlimit:4;stroke-opacity:1;stroke-dasharray:none"
       d="m 271.36936,619.86235 c 9.61941,11.61665 -12.39639,16.39415 -0.65838,18.47841 9.86351,12.27711 -5.69837,20.26061 6.27652,27.73957 11.58244,-1.49897 25.34394,24.12959 34.67445,8.25166 10.73878,10.24973 18.03541,-7.57534 12.1328,-14.52646 10.00392,-11.92528 -1.19405,-19.71621 -12.04502,-20.63077 5.02863,-3.05158 5.56019,-13.63096 -5.80115,-21.96769 -13.23397,-0.85321 -21.18236,3.81648 -34.57922,2.65528 z"
       id="path2488"
       inkscape:connector-curvature="0" />
    <path
       style="fill:#f9f9f9;fill-rule:evenodd;stroke:#000000;stroke-width:0.2;stroke-linecap:butt;stroke-linejoin:miter;stroke-miterlimit:4;stroke-opacity:1;stroke-dasharray:none"
       d="m 195.9195,626.84113 c 0.34877,14.4818 13.78377,6.46714 15.80102,19.6196 17.46018,-7.58283 7.72976,5.71168 13.12362,12.55303 9.45541,12.17451 -4.11385,17.30716 1.84346,28.70518 -2.79253,14.40639 21.3495,-4.63481 15.8449,4.52088 4.51,22.90198 22.15755,5.32737 23.26259,22.47254 3.85494,19.05897 7.18917,-9.05521 13.86978,-16.06436 4.23446,1.59613 13.01069,-14.44669 19.1368,-10.97292 14.23658,5.49776 -6.90269,-26.62276 -18.21506,-17.29334 -18.85811,-10.02613 2.32693,-15.55609 -9.96342,-27.95902 -8.70739,-9.3479 4.01607,-5.93388 2.50183,-19.40014 -5.37365,-11.72237 -15.97464,-6.44194 -24.57936,-1.9751 -0.71722,-6.19716 -8.70332,-27.10323 -7.32992,-12.64081 -6.01455,9.0776 -17.24172,3.2 -14.52815,17.42502 -8.77755,6.36214 -19.02521,-0.79881 -30.7681,1.00951 l 1e-5,-7e-5 z"
       id="path2493"
       inkscape:connector-curvature="0" />
    <path
       style="fill:#f9f9f9;fill-rule:evenodd;stroke:#000000;stroke-width:0.2;stroke-linecap:butt;stroke-linejoin:miter;stroke-miterlimit:4;stroke-opacity:1;stroke-dasharray:none"
       d="m 269.13088,722.56896 c -2.80275,2.37517 9.41794,27.49832 18.02562,34.68334 17.42932,8.74247 46.21779,-8.43296 39.82366,-6.8121 -1.81116,-11.17524 4.66821,-23.33671 15.01096,-11.6313 -8.45357,-7.23694 18.38191,-12.88558 1.79956,-21.94589 -15.81518,-2.58425 -18.51402,-21.60086 -11.01683,-28.70518 -9.03604,-13.38831 -17.11543,6.06413 -19.35627,-8.69057 1.23074,-11.47646 -12.73579,14.21311 -13.12362,10.66563 -8.02241,-14.48325 -11.03284,16.32913 -21.37528,6.05705 -0.61202,10.49451 -8.5709,18.98511 -9.7878,26.37902 z"
       id="path2498"
       inkscape:connector-curvature="0" />
    <path
       style="fill:#f9f9f9;fill-rule:evenodd;stroke:#000000;stroke-width:0.2;stroke-linecap:butt;stroke-linejoin:miter;stroke-miterlimit:4;stroke-opacity:1;stroke-dasharray:none"
       d="m 149.39429,622.89088 c -6.41573,10.7424 -5.52608,25.82793 -6.27904,42.48637 -2.66316,7.90136 -5.54053,31.08249 -11.27761,18.69868 -18.71326,10.48356 10.54193,4.84392 15.4978,12.14083 9.80745,24.05783 20.0703,-21.12804 35.81668,-12.46267 16.52185,8.76778 23.64443,28.61581 36.64452,9.23186 12.75482,-3.14422 0.0348,-17.66115 9.61228,-23.04315 1.12621,-10.67101 -14.59985,-19.53497 -4.52085,-22.91148 -8.62566,-2.2545 -24.54131,-18.05839 -22.91147,-11.89465 -8.50614,-10.01471 -18.67951,-11.44471 -31.95317,-19.44403 -7.39689,11.46362 -11.80689,-5.84143 -20.62914,7.19824 z"
       id="path2513"
       inkscape:connector-curvature="0" />
    <path
       style="fill:#f9f9f9;fill-rule:evenodd;stroke:#000000;stroke-width:0.2;stroke-linecap:butt;stroke-linejoin:miter;stroke-miterlimit:4;stroke-opacity:1;stroke-dasharray:none"
       d="m 143.24945,641.3254 c -0.10176,-8.99008 -20.78993,-26.65129 -31.47036,-12.24577 -13.438382,9.37313 -4.71691,22.83953 -0.39506,34.36721 9.6141,8.90113 -6.59756,12.29598 -1.22897,24.27211 16.515,11.17567 12.43716,1.81584 20.23408,-0.39502 6.73633,0.75023 6.68941,-1.91306 12.268,-16.22728 -0.27891,-11.47224 0.79477,-20.39444 0.59231,-29.77125 z"
       id="path2518"
       inkscape:connector-curvature="0" />
    <path
       style="fill:#f9f9f9;fill-rule:evenodd;stroke:#000000;stroke-width:0.2;stroke-linecap:butt;stroke-linejoin:miter;stroke-miterlimit:4;stroke-opacity:1;stroke-dasharray:none"
       d="m 535.50969,756.14612 c -15.94448,3.76819 -22.26643,12.87216 -25.28161,24.62324 -3.46306,9.31568 6.4153,25.80028 18.30284,23.26261 4.79775,12.74167 9.98341,14.63413 9.1424,30.51364 9.34517,-1.11593 18.385,-9.0386 34.79174,-7.1529 14.95655,14.516 9.98126,-23.8325 -2.01219,-22.06708 -9.87147,-3.93113 -26.37221,-14.16901 -27.65718,-23.854 -20.77583,-10.74427 9.26589,-9.63049 -7.286,-25.32551 z"
       id="path2528"
       inkscape:connector-curvature="0" />
    <path
       style="fill:#f9f9f9;fill-rule:evenodd;stroke:#000000;stroke-width:0.2;stroke-linecap:butt;stroke-linejoin:miter;stroke-miterlimit:4;stroke-opacity:1;stroke-dasharray:none"
       d="m 515.62675,800.03784 c 7.36708,13.37176 2.16598,12.99566 -4.08193,20.27797 0.68615,11.62384 5.86837,35.23488 -12.64079,20.58521 17.18634,-13.52361 -2.26041,-29.78992 -5.04755,-5.04755 -0.39046,14.60842 -19.105,24.15622 -0.61448,29.58301 2.5968,8.86148 14.25261,6.99415 28.57178,0.56064 11.46082,8.91515 21.14668,15.09643 34.80786,-1.43847 10.53374,8.50598 17.90508,-15.82121 28.70517,-20.98024 -1.64526,-13.61842 -7.67274,-20.98704 -27.94853,-11.91585 -4.02004,-16.83111 -24.8031,25.61793 -22.04413,-9.63498 1.66176,-3.19871 -5.01729,-20.33954 -13.38693,-17.95172 -2.1617,-1.64592 -3.31728,-3.45886 -6.32047,-4.03802 z"
       id="path2536"
       inkscape:connector-curvature="0" />
    <path
       style="fill:#f9f9f9;fill-rule:evenodd;stroke:#000000;stroke-width:0.2;stroke-linecap:butt;stroke-linejoin:miter;stroke-miterlimit:4;stroke-opacity:1;stroke-dasharray:none"
       d="m 495.39267,826.50454 c 2.47315,-12.34486 -6.92921,-14.00329 -19.57571,-20.01462 -14.58954,-3.50076 -17.78767,-2.43816 -29.89024,3.8186 8.49484,10.78935 -3.52286,14.0344 -15.01099,22.07753 5.65099,0.2327 22.48118,25.4679 24.97344,12.75484 0.25674,-15.39736 14.00465,32.57252 22.56129,16.1698 7.83781,7.48919 14.02505,-15.94779 14.65982,-30.54863 l 0.96562,-2.28237 1.31675,-1.97513 2e-5,-2e-5 z"
       id="path2541"
       inkscape:connector-curvature="0" />
    <path
       style="fill:#f9f9f9;fill-rule:evenodd;stroke:#000000;stroke-width:0.2;stroke-linecap:butt;stroke-linejoin:miter;stroke-miterlimit:4;stroke-opacity:1;stroke-dasharray:none"
       d="m 479.94278,731.874 c 7.03771,12.60182 6.15836,28.27018 -1.49232,32.47987 -5.37548,-5.29364 -24.83839,12.36574 -11.01684,17.38112 7.57474,0.77941 -6.65436,23.97179 -1.66789,20.45354 6.28815,9.5384 35.77591,6.17187 27.38845,18.39065 -3.0754,9.42973 28.3223,-5.16257 7.81272,13.95757 -0.78824,21.97092 20.50863,4.78352 10.09509,-11.32406 1.64676,-11.8316 15.62893,-7.09044 4.30137,-20.40965 -2.28118,-9.48988 -11.12188,-20.20465 -1.22897,-28.13458 -8.58228,-15.68964 36.51617,-13.78385 19.88292,-28.39793 9.8252,-10.11173 -17.52614,-29.67931 -16.51106,-14.7177 -10.6082,-5.72523 -6.08198,-16.51613 -14.65171,-11.05913 4.44832,24.74904 -18.08473,-5.18463 -22.91176,11.3803 z"
       id="path2546"
       inkscape:connector-curvature="0" />
    <path
       style="fill:#f9f9f9;fill-rule:evenodd;stroke:#000000;stroke-width:0.2;stroke-linecap:butt;stroke-linejoin:miter;stroke-miterlimit:4;stroke-opacity:1;stroke-dasharray:none"
       d="m 409.54048,750.87912 c 2.76915,8.85732 -4.42257,18.14606 -1.53621,31.3387 1.39102,12.24134 16.34377,-2.31524 23.08704,15.49378 11.66871,14.60254 19.23952,3.88557 30.7242,11.19236 -0.4873,-8.46624 12.82245,-10.08349 8.3394,-19.53183 3.88522,-10.18113 -17.41794,-13.58372 -0.395,-23.70153 6.68284,-4.28034 18.865,-1.78331 14.92318,-18.65397 -5.74047,-22.09829 -9.64046,-12.43323 -21.06801,-3.11632 -5.2025,-13.78715 -22.7595,-15.70909 -24.05266,4.65253 -3.88411,10.72079 -12.90399,-17.83165 -20.98024,-6.32042 -4.79783,-6.79603 -12.02204,-10.04636 -9.08559,4.30139 1.57947,0.83944 0.33882,3.08717 0.0439,4.34531 z"
       id="HIDALGO DEL PARRAL"
       inkscape:connector-curvature="0" />
    <path
       style="fill:#f9f9f9;fill-rule:evenodd;stroke:#000000;stroke-width:0.2;stroke-linecap:butt;stroke-linejoin:miter;stroke-miterlimit:4;stroke-opacity:1;stroke-dasharray:none"
       d="m 432.62752,798.23828 c -4.15162,6.77662 -25.83347,29.23605 -23.39429,19.26846 -14.9902,13.40602 16.1711,6.04873 11.45572,10.92904 15.36987,26.13879 7.43854,-4.12627 27.69568,-7.37381 -0.4444,-6.58042 1.69714,-12.99772 -13.47474,-22.29697 l -2.28237,-0.5267 0,-2e-5 z"
       id="path2556"
       inkscape:connector-curvature="0" />
    <path
       style="fill:#f9f9f9;fill-rule:evenodd;stroke:#000000;stroke-width:0.2;stroke-linecap:butt;stroke-linejoin:miter;stroke-miterlimit:4;stroke-opacity:1;stroke-dasharray:none"
       d="m 409.32102,787.96762 c -4.82039,18.84095 -13.10382,25.35175 -24.09656,13.43085 -18.88103,9.99594 4.10774,6.90104 6.8471,17.38113 10.79897,-4.70537 16.98882,5.56611 28.7491,-9.30504 7.9188,-3.92945 16.32199,-9.65522 5.35479,-16.41552 -5.78691,-16.25688 -12.34186,-2.02869 -16.85443,-5.09142 z"
       id="path2561"
       inkscape:connector-curvature="0" />
    <path
       style="fill:#f9f9f9;fill-rule:evenodd;stroke:#000000;stroke-width:0.2;stroke-linecap:butt;stroke-linejoin:miter;stroke-miterlimit:4;stroke-opacity:1;stroke-dasharray:none"
       d="m 385.5756,744.0759 c 0.76628,12.11082 0.27904,22.85669 -12.07022,20.89249 -4.93009,7.04379 -9.20872,22.57682 4.30139,26.4228 4.12287,11.25919 9.12301,6.43421 17.29331,17.77614 8.81149,-0.52555 15.02575,-18.63729 12.90418,-26.9495 -2.88636,-13.19264 4.30536,-22.48138 1.53621,-31.3387 -12.28874,7.27392 -12.57829,-9.56771 -21.33138,-4.47695 l -1.0534,-0.5267 -1.5801,-1.79956 1e-5,-2e-5 z"
       id="path2566"
       inkscape:connector-curvature="0" />
    <path
       style="fill:#f9f9f9;fill-rule:evenodd;stroke:#000000;stroke-width:0.2;stroke-linecap:butt;stroke-linejoin:miter;stroke-miterlimit:4;stroke-opacity:1;stroke-dasharray:none"
       d="m 315.61221,756.01445 c -6.00864,12.25353 13.52257,-2.00262 12.20189,10.97295 8.87753,-1.12282 26.17342,-10.03828 34.36722,2.01902 0.5385,-13.9546 17.91501,2.61085 25.10604,-9.70008 -2.63982,-11.25844 -6.89823,-21.23437 2.89685,-25.10606 13.68189,-10.65724 -9.78873,-8.99824 -16.19604,-13.12361 -1.41444,14.19439 -14.13487,5.40195 -22.86759,-0.87783 -1.13316,-0.96317 -8.71311,18.16804 -9.56839,16.45937 -5.26148,-2.86135 -14.96466,-3.47687 -14.96706,8.51499 -3.08865,22.75819 -1.67235,-4.88934 -10.97292,10.84125 z"
       id="path2571"
       inkscape:connector-curvature="0" />
    <path
       style="fill:#f9f9f9;fill-rule:evenodd;stroke:#000000;stroke-width:0.2;stroke-linecap:butt;stroke-linejoin:miter;stroke-miterlimit:4;stroke-opacity:1;stroke-dasharray:none"
       d="m 326.67292,766.8557 c -2.15069,15.28746 19.35804,-1.68694 22.1653,10.6657 7.09324,0.11559 8.14841,16.33635 17.77613,25.89611 9.91457,11.98893 21.94815,-7.2878 11.85078,-12.28969 -10.69755,-0.83007 -14.48324,-19.57444 -3.86247,-23.56984 -9.14602,-14.34082 -9.81196,8.81304 -21.72638,-4.30141 -8.81279,-2.57839 -19.38111,3.88469 -26.20336,3.59913 z"
       id="path2576"
       inkscape:connector-curvature="0" />
    <path
       style="fill:#f9f9f9;fill-rule:evenodd;stroke:#000000;stroke-width:0.2;stroke-linecap:butt;stroke-linejoin:miter;stroke-miterlimit:4;stroke-opacity:1;stroke-dasharray:none"
       d="m 115.64156,819.43797 c 22.42364,-0.0237 5.85057,-36.9204 23.70702,-31.17576 7.1394,-13.07464 14.41404,-17.99667 19.48243,-26.49795 4.59529,-11.24038 2.11507,-29.95543 -15.62546,-19.44403 12.54525,-2.84659 14.71865,-34.61416 20.53852,-31.0218 -13.97536,-8.58823 -18.5097,-25.25704 -35.37392,-18.31248 -12.44579,-4.22412 -16.05268,2.45798 -16.32774,19.53182 1.34555,19.92146 -12.00533,20.28213 -18.65398,25.32551 -13.237057,6.9134 -1.521355,27.89998 -8.295534,36.34232 -8.100716,7.40688 -27.103568,-3.38301 -24.228226,10.40233 14.4304,-0.50924 13.691764,2.55068 24.57936,-1.79956 18.94143,-8.8155 -5.945755,24.99466 9.586333,21.40287 4.266301,0.47231 12.057887,4.17424 20.611197,15.24673 z"
       id="path2601"
       inkscape:connector-curvature="0" />
    <path
       style="fill:#f9f9f9;fill-rule:evenodd;stroke:#000000;stroke-width:0.2;stroke-linecap:butt;stroke-linejoin:miter;stroke-miterlimit:4;stroke-opacity:1;stroke-dasharray:none"
       d="m 273.52005,848.62596 c 14.66779,10.5742 22.16426,33.05166 43.18946,35.02559 14.15181,8.06215 28.84621,43.18902 32.18538,17.18614 16.05297,-12.40499 7.56471,-16.98031 17.01723,-28.29073 -6.10364,-10.04617 3.80474,-23.74074 8.29554,-34.67446 17.57046,0.26684 -5.63781,-18.52917 11.23627,-12.11411 15.26476,-10.70577 -13.75427,-23.73275 -9.08558,-18.69787 -13.38697,-4.85743 -22.95843,-18.02807 -22.20921,-30.1975 -7.89566,-1.64177 -16.33231,-4.30887 -28.39793,-4.95977 8.19105,-16.60491 -15.11575,-6.82287 -9.26112,-13.38697 -5.83222,0.32056 -42.63455,-2.472 -35.33285,-1.05341 2.27799,6.76588 -17.24213,16.08602 -0.0878,21.28749 -8.73797,8.9624 -5.81909,24.09555 3.59911,35.94731 -5.16025,16.70213 5.07236,24.94128 -11.14854,33.92829 z"
       id="path2615"
       inkscape:connector-curvature="0" />
    <path
       style="fill:#f9f9f9;fill-rule:evenodd;stroke:#000000;stroke-width:0.2;stroke-linecap:butt;stroke-linejoin:miter;stroke-miterlimit:4;stroke-opacity:1;stroke-dasharray:none"
       d="m 163.39574,918.45768 c 17.30766,-6.28201 21.94747,13.17537 37.52742,5.00366 8.29417,8.53237 14.69092,9.92946 21.02413,25.19384 -9.18199,18.00611 30.0748,21.83267 29.40034,36.57193 10.80988,10.36371 14.90385,8.97945 26.24247,21.30689 7.61983,6.1791 32.56487,4.9947 37.97822,-1.3024 6.63796,-11.0665 36.95531,-24.04182 5.31089,-14.22092 3.74774,-16.83451 -1.79009,-41.78667 13.34308,-42.3555 14.42841,0.10115 -6.17832,-22.02055 10.05121,-25.76444 -4.95784,-25.8881 -27.24885,-39.45928 -49.33429,-50.16823 -8.44623,-13.42945 -22.32245,-26.35886 -37.41114,-32.7067 -12.23017,2.08196 -21.06478,0.49506 -29.47984,8.21512 -11.09267,-13.32346 -27.32007,-13.05835 -19.04901,4.91587 -1.72798,24.19645 -3.83723,-2.11502 -15.93267,0.87782 -1.72917,12.6704 -15.56625,17.1468 -7.68105,32.56768 -5.6406,12.42051 -18.43389,24.98612 -14.00145,26.11557 -2.3684,2.08468 -7.27677,2.51703 -7.98831,5.74981 z"
       id="path2625"
       inkscape:connector-curvature="0" />
    <path
       style="fill:#f9f9f9;fill-rule:evenodd;stroke:#000000;stroke-width:0.2;stroke-linecap:butt;stroke-linejoin:miter;stroke-miterlimit:4;stroke-opacity:1;stroke-dasharray:none"
       d="m 163.39574,918.45768 c 8.19484,-7.84056 15.85352,-16.90747 18.39063,-28.79296 4.29263,-3.23389 0.27941,-54.07688 6.80322,-27.6518 7.15572,-27.89791 18.1514,15.42322 19.13678,-2.6335 3.09921,-8.98388 2.7711,-29.59305 -14.78086,-27.53309 -13.28183,-4.1727 -20.72691,-4.3648 -31.0421,-11.22329 -24.89447,-10.18054 -2.00091,16.06015 -17.90782,22.38475 -6.87892,18.52369 -23.06921,1.30156 -3.95026,-10.92903 5.46626,-11.35504 -19.62212,-9.96015 -16.15215,-0.17558 -10.91836,10.46722 -18.26974,11.21408 -4.69641,21.98974 11.14572,14.50599 -6.4722,30.71142 16.50337,47.72161 7.85535,13.91379 17.48752,26.78919 27.69558,16.8431 l 2e-5,5e-5 z"
       id="path2620"
       inkscape:connector-curvature="0" />
    <path
       style="fill:#f9f9f9;fill-rule:evenodd;stroke:#000000;stroke-width:0.2;stroke-linecap:butt;stroke-linejoin:miter;stroke-miterlimit:4;stroke-opacity:1;stroke-dasharray:none"
       d="m 119.89906,834.40505 c -0.0333,-10.56711 18.1727,-1.42314 19.13678,-6.8032 -7.74581,6.78935 -8.01391,38.41562 0,17.42501 21.79182,-0.8182 -0.71375,-29.85882 17.95171,-25.72054 9.92501,3.39711 25.57562,16.33648 25.6827,-2.8044 4.80379,-12.76829 47.6716,-15.61947 22.5354,-33.97954 -2.97421,-13.34023 -23.18591,-17.04393 -31.27589,-36.20796 6.76814,-24.36384 -20.419,-2.23185 -14.2648,9.34893 -2.54346,13.85344 -8.32495,18.11793 -18.70108,27.20638 -13.53697,2.29375 -6.11755,25.90056 -21.37429,34.61137 -8.0783,2.27485 1.64111,10.48291 0.30947,16.92395 z"
       id="path2606"
       inkscape:connector-curvature="0" />
    <path
       style="fill:#f9f9f9;fill-rule:evenodd;stroke:#000000;stroke-width:0.2;stroke-linecap:butt;stroke-linejoin:miter;stroke-miterlimit:4;stroke-opacity:1;stroke-dasharray:none"
       d="m 160.58667,742.93472 c 19.69803,-22.77136 9.70491,12.90803 26.53461,21.34181 12.8686,5.8356 28.33021,22.51426 22.85193,33.99636 -12.84082,6.02897 -40.66761,20.28876 -25.08062,31.79944 16.37641,2.54607 30.92696,7.55614 43.15565,18.15861 8.99212,-7.97317 19.0193,-6.44844 32.45363,-8.0027 13.78792,16.96642 31.92193,-3.02569 20.21643,-18.24455 8.4452,-14.05026 -12.89842,-27.51913 -2.89685,-39.76589 3.34883,-5.40118 -10.72058,-15.05412 4.21359,-20.76078 -3.32286,-10.84364 -2.03405,-31.04052 -18.17117,-34.89391 10.28289,3.14408 -3.04969,-30.75666 -6.05706,-17.90781 -13.54189,-0.16782 -15.56904,-30.9706 -19.04898,-14.79152 -14.17566,-11.27548 -27.01035,11.17826 -35.23075,6.38739 -11.50944,-16.59429 -31.06556,-25.56594 -41.76902,-3.06544 -14.97681,11.79759 18.13578,14.28407 -1.21538,28.35578 -1.29768,16.00029 -31.84281,14.92537 -2.19447,15.46196 l 2.19458,1.88735 0.0439,0.0439 -2e-5,0 z"
       id="path2596"
       inkscape:connector-curvature="0" />
    <path
       style="fill:#f9f9f9;fill-rule:evenodd;stroke:#000000;stroke-width:0.2;stroke-linecap:butt;stroke-linejoin:miter;stroke-miterlimit:4;stroke-opacity:1;stroke-dasharray:none"
       d="m 60.074649,784.10514 c -1.409442,-14.2739 19.822159,-1.20289 24.31601,-10.70957 6.757659,-10.4255 -1.596682,-28.60662 8.076075,-38.18577 14.458886,2.35716 18.456376,-8.07649 19.092896,-24.316 8.34069,-16.39144 -0.0272,-27.34576 -6.36337,-34.96851 -13.035978,8.12209 7.2879,32.29417 -19.502444,7.62897 -7.026745,-22.70523 -14.638017,-2.87341 -23.336776,4.91086 -13.291775,14.22732 -9.659861,32.21423 7.4177,37.83466 9.143038,18.98075 -5.897611,24.28178 -16.020476,31.16308 -6.547932,9.4878 -1.728786,21.0942 6.320385,26.64228 z"
       id="path2591"
       inkscape:connector-curvature="0" />
    <path
       style="fill:#f9f9f9;fill-rule:evenodd;stroke:#000000;stroke-width:0.2;stroke-linecap:butt;stroke-linejoin:miter;stroke-miterlimit:4;stroke-opacity:1;stroke-dasharray:none"
       d="m 55.466019,782.65672 c -4.484831,-11.23645 -8.358541,-21.55516 3.643009,-32.3043 15.871003,8.81287 16.954045,-26.09974 5.091439,-27.34451 -18.39608,-6.64941 -9.109955,-29.98099 2.940745,-36.51791 6.924012,-15.08097 -8.349568,-23.98107 -19.136787,-21.59472 -22.152419,-3.10672 -20.716074,25.81298 -20.190189,22.16532 -22.0404435,4.89807 2.236654,12.92029 1.360645,26.15946 1.236249,11.28357 10.683185,30.00749 -0.54602,37.4616 6.177839,7.63087 3.809089,31.36873 13.537543,32.712 -4.933787,13.1027 13.752928,0.32338 13.299615,-0.73694 z"
       id="path2586"
       inkscape:connector-curvature="0" />
    <path
       style="fill:#f9f9f9;fill-rule:evenodd;stroke:#000000;stroke-width:0.2;stroke-linecap:butt;stroke-linejoin:miter;stroke-miterlimit:4;stroke-opacity:1;stroke-dasharray:none"
       d="m 17.236336,694.25881 c 10.753229,-6.03795 13.583254,-13.78192 13.957563,-25.58887 7.455619,-6.66753 30.041795,-7.2266 34.586671,4.03803 11.143327,2.7919 14.366336,0.87562 31.005487,19.61531 13.358043,9.48252 -9.649056,-25.5139 19.031063,-19.83476 -3.58601,-8.5339 -7.84951,-18.0609 -11.93854,-26.81783 11.74668,-19.84091 -20.931011,-23.68352 -31.338666,-10.53401 -12.777282,-7.57332 -29.53397,-9.34102 -39.107517,-0.52669 -12.43192,6.38197 -28.2064932,-14.1362 -42.5582814,-14.75784 -8.9154026,12.23755 -2.1840346,17.77855 1.5634234,31.74394 -0.5157948,16.22449 7.07307181,15.92584 19.575704,27.25675 10.10659,5.9805 -3.2656374,9.61574 5.223093,15.40597 z"
       id="path2581"
       inkscape:connector-curvature="0" />
    <path
       style="fill:#f9f9f9;fill-rule:evenodd;stroke:#000000;stroke-width:0.2;stroke-linecap:butt;stroke-linejoin:miter;stroke-miterlimit:4;stroke-opacity:1;stroke-dasharray:none"
       d="m -15.726341,635.57558 c 2.334697,-12.61897 9.3439738,-19.83932 25.0182739,-8.03219 13.9428131,11.3707 25.3400031,10.44832 35.9912051,0.43892 13.229848,-0.76322 19.692431,-16.22725 11.499635,-27.78348 -14.604769,11.02998 9.950038,-41.40589 -0.749773,-22.616 -4.116987,-3.67701 -19.690992,-1.95685 -26.792367,8.13728 -13.304654,-4.74698 -30.7597716,14.62814 -44.791403,1.31121 -5.429469,-4.85408 -22.938966,4.12629 -11.236279,28.44183 1.16639,6.45451 3.418473,19.462 11.060708,20.10243 z"
       id="path2523"
       inkscape:connector-curvature="0" />
    <path
       style="fill:#f9f9f9;fill-rule:evenodd;stroke:#000000;stroke-width:0.2;stroke-linecap:butt;stroke-linejoin:miter;stroke-miterlimit:4;stroke-opacity:1;stroke-dasharray:none"
       d="m 57.441146,576.93625 c -6.330528,4.55827 -7.534808,28.3647 -1.448427,23.3504 16.478338,11.43113 -11.668608,27.60111 -1.495305,28.88111 17.118451,13.5248 33.089288,-9.84946 49.488126,2.02262 9.38832,-3.58686 28.99722,-14.04895 38.1666,4.56074 -1.57347,14.9363 12.96291,-17.59992 1.97513,-17.60058 -16.82224,-5.86646 -11.28153,-19.32422 -30.9709,-25.37704 -7.58378,-14.39598 -10.81555,-9.89304 -20.733534,-13.94992 -5.670565,0.24216 -15.049512,-7.24843 -24.579363,-1.93124 -0.397144,4.00617 -8.016434,-0.0984 -10.402327,0.0439 z"
       id="path2483"
       inkscape:connector-curvature="0" />
    <path
       style="fill:#f9f9f9;fill-rule:evenodd;stroke:#000000;stroke-width:0.2;stroke-linecap:butt;stroke-linejoin:miter;stroke-miterlimit:4;stroke-opacity:1;stroke-dasharray:none"
       d="m 107.34602,580.9304 c 0.17306,19.96557 27.86287,15.6703 25.32259,32.19301 13.08142,6.19084 22.50532,10.19155 36.76205,3.1175 13.91497,6.06801 25.19196,14.37023 40.66587,10.77579 11.23776,5.08089 17.39227,-0.35789 19.00511,-11.71909 7.0642,-9.77154 2.00957,-16.95316 0.39501,-29.1002 7.77648,-3.35389 34.24424,-12.53288 19.83906,-19.049 -1.5855,-9.64828 0.63225,-21.40591 -14.3965,-22.47256 8.40367,-7.4397 -37.77157,-27.74445 -17.99561,-19.18068 0.39924,-7.83846 -9.2911,-13.04439 -20.05851,-17.42502 -19.30066,17.21398 5.13366,-26.78142 -11.96024,-17.06783 -3.14271,20.47068 -17.9643,26.92525 -18.90222,28.25528 -11.62305,17.02894 -12.79192,0.47141 -23.78274,10.84616 1.8626,15.53784 -5.65958,13.10897 -13.07973,18.0395 0.17242,14.80232 -5.99822,19.72949 -15.75716,24.27212 -4.53753,-1.94572 -2.78338,8.51054 -6.05698,8.51502 z"
       id="path2447"
       inkscape:connector-curvature="0" />
    <path
       style="fill:#f9f9f9;fill-rule:evenodd;stroke:#000000;stroke-width:0.2;stroke-linecap:butt;stroke-linejoin:miter;stroke-miterlimit:4;stroke-opacity:1;stroke-dasharray:none"
       d="m 145.22457,527.9531 c 6.2062,-0.0516 20.51841,-1.40143 21.19688,-13.15343 11.802,7.9608 22.23698,-25.4431 11.85358,-32.27449 -11.86886,-1.64647 -20.58144,-11.15385 -26.9934,2.89689 -0.57557,7.99883 -15.85737,12.38929 -11.16145,26.59684 4.09483,4.6793 4.74797,9.95183 5.10439,15.93419 z"
       id="path2439"
       inkscape:connector-curvature="0" />
    <path
       style="fill:#f9f9f9;fill-rule:evenodd;stroke:#000000;stroke-width:0.2;stroke-linecap:butt;stroke-linejoin:miter;stroke-miterlimit:4;stroke-opacity:1;stroke-dasharray:none"
       d="m 52.042465,572.19595 c 10.509695,13.01205 24.197134,-3.07066 33.050463,5.48646 9.056404,-1.40953 11.741865,7.36346 21.199692,3.29188 3.73115,-11.94531 22.37251,-10.97793 19.31239,-21.50695 -1.61451,-22.34486 19.57063,-6.16488 14.79149,-23.17483 10.42688,-8.79532 -3.80645,-22.97117 1.71179,-32.65542 -4.52083,-11.56397 11.17081,-12.44222 12.46526,-21.33138 1.86528,-15.02673 33.7,11.67953 23.17482,-8.95395 -1.13212,-8.62072 6.24933,-29.96407 -9.65923,-25.85222 -7.90794,-1.3026 -18.01468,-16.56937 -33.13519,-13.65032 -6.89323,5.14295 24.99043,9.23193 13.75852,18.34673 -22.46301,-5.78748 -32.57777,3.58814 -21.30789,21.04761 -10.29883,7.98948 -24.30984,16.93796 -29.187991,27.80387 -20.910014,-11.02359 13.064121,18.56264 -13.781998,10.66568 -19.471114,-1.11075 -9.774002,21.53352 -30.241391,4.56474 1.37479,17.09764 -24.461531,-8.12405 -14.65983,13.03584 9.173507,17.93149 7.361891,27.11362 12.421355,41.74101 l 0.08778,1.14119 -4e-5,6e-5 z"
       id="path2428"
       inkscape:connector-curvature="0" />
    <path
       style="fill:#f9f9f9;fill-rule:evenodd;stroke:#000000;stroke-width:0.2;stroke-linecap:butt;stroke-linejoin:miter;stroke-miterlimit:4;stroke-opacity:1;stroke-dasharray:none"
       d="m 223.26404,462.33499 c 1.57117,9.79844 11.44481,20.2535 17.77612,26.77395 20.52086,16.28359 -12.93836,12.93527 -2.28238,23.43819 -6.6474,6.41323 -13.79484,19.12048 -5.22312,25.89611 0.81438,8.26822 19.03284,9.81494 14.48427,22.51645 6.27799,9.41331 2.56735,22.82047 21.48654,16.32772 10.70594,-0.55329 17.54021,-1.27439 28.76949,-1.7118 6.57155,-11.87702 36.94148,-12.17416 23.7994,-15.90272 -11.29661,-5.58524 -0.77951,-20.83746 -18.53239,-26.89172 -8.02075,-9.6487 -24.43722,-21.73899 -21.09057,-29.89086 14.20092,-1.29404 -7.08381,-20.8771 12.31583,-16.55944 -0.73115,-19.25611 -11.46574,-21.38486 -9.0453,-34.44213 -6.84821,11.45528 -20.61061,1.57788 -29.16158,0.44209 -5.86093,-9.97866 -19.02469,6.30863 -31.81192,8.36271 l -0.91382,1.81702 -0.57059,-0.17557 2e-5,0 z"
       id="CUAUHTEMOC"
       inkscape:connector-curvature="0" />
    <path
       style="fill:#f9f9f9;fill-rule:evenodd;stroke:#000000;stroke-width:0.2;stroke-linecap:butt;stroke-linejoin:miter;stroke-miterlimit:4;stroke-opacity:1;stroke-dasharray:none"
       d="m 285.41471,451.62541 c -1.92987,13.21969 8.36052,14.81887 9.287,33.90483 -18.38493,0.40686 1.41287,13.67618 -15.1681,22.9646 10.96976,-0.30786 12.26693,22.48652 26.04,26.73754 18.95721,6.45652 3.38689,21.43935 19.42134,29.29642 8.61554,0.60703 22.1629,-10.24124 32.64795,-0.0749 1.89858,-16.82997 1.57284,-24.96921 -11.73635,-36.34564 -2.51025,-17.07273 -11.58201,-15.83398 -27.58163,-19.07243 -1.71208,-15.24536 4.14481,-38.59832 -3.84112,-47.28957 21.39254,-17.10939 -1.59831,-19.00603 -7.43048,-27.4142 -15.57993,-7.1514 -18.06481,5.50813 -21.63861,17.29333 l 0,0 z"
       id="path2443"
       inkscape:connector-curvature="0" />
    <path
       style="fill:#f9f9f9;fill-rule:evenodd;stroke:#000000;stroke-width:0.2;stroke-linecap:butt;stroke-linejoin:miter;stroke-miterlimit:4;stroke-opacity:1;stroke-dasharray:none"
       d="m 651.29604,519.43811 c 9.61091,7.8792 20.72047,-5.79361 25.11006,13.96705 1.15763,20.67634 14.27362,-9.55325 21.67848,5.23198 17.4458,-0.30508 29.12963,0.81338 40.02927,-1.73013 5.12326,-3.93122 17.90714,-14.6231 26.04481,-33.48213 -0.005,-8.13953 26.51468,-29.53354 10.12196,-32.75046 -18.76137,-1.40485 -29.03415,-26.36603 -49.42207,-25.76444 -8.7419,-3.24809 -29.50837,-30.58008 -39.66864,-11.23074 -15.06213,-5.92345 -20.2397,-3.89878 -35.03936,-3.10497 -14.27853,-6.07173 -6.35151,13.2576 2.06721,20.2172 4.2971,7.26342 10.26369,9.87364 9.43674,21.15579 -3.43409,1.63151 8.38773,19.7316 -3.77469,19.92686 9.15695,10.65907 -14.09264,21.89293 -7.06657,26.59838 l 0.48281,0.65838 0,0.30724 -1e-5,-10e-6 z"
       id="path2438"
       inkscape:connector-curvature="0" />
    <path
       style="fill:#f9f9f9;fill-rule:evenodd;stroke:#000000;stroke-width:0.2;stroke-linecap:butt;stroke-linejoin:miter;stroke-miterlimit:4;stroke-opacity:1;stroke-dasharray:none"
       d="m 586.42408,510.74755 c 5.50104,13.91171 22.61037,-5.79974 34.19843,5.24145 8.67997,10.80235 2.02802,20.14189 19.87616,23.68319 12.97412,-9.26625 8.19068,-22.92333 10.31456,-30.59253 17.23016,-3.658 0.66636,-20.02609 13.45597,-20.56017 0.15461,-11.28985 -6.41404,-12.7176 -2.65862,-25.13112 -2.93874,-6.60842 -12.56777,-11.4793 -15.80102,-21.6825 -12.40685,-17.38236 6.56266,-8.33475 17.9956,-11.1046 4.30221,-1.11763 42.26828,7.46602 9.21726,-10.27066 -18.31722,-7.77393 -19.2956,-29.65723 -42.96998,-31.42647 -22.57079,-10.07446 -25.59398,-36.41515 -40.86319,-55.96193 -12.67179,-19.85845 5.86244,-45.0594 -16.28382,-62.76515 -11.9825,-11.10751 -5.90341,-27.97267 -25.36942,-28.04681 -23.9931,-13.49802 16.22449,22.66038 6.86022,23.28106 -9.90447,12.90878 7.32973,25.7624 4.59552,35.97275 -2.23765,13.51331 10.97426,18.5356 -0.35113,29.27578 18.452,14.97069 -15.71765,28.89395 12.55302,37.68256 -3.1803,21.08704 1.14287,33.79463 14.26481,49.31081 13.74016,-6.32828 24.65947,14.06652 20.27797,26.68617 -12.06792,1.62683 -26.68404,21.30342 -31.7776,35.4645 -19.1295,-1.12796 20.16031,26.19694 12.46524,30.94366 l 2e-5,10e-6 z"
       id="path2406"
       inkscape:connector-curvature="0" />
    <path
       style="fill:#f9f9f9;fill-rule:evenodd;stroke:#000000;stroke-width:0.2;stroke-linecap:butt;stroke-linejoin:miter;stroke-miterlimit:4;stroke-opacity:1;stroke-dasharray:none"
       d="m 414.06132,368.93342 c 3.07272,18.18655 25.16655,-10.67476 31.86539,9.92259 7.85056,9.81234 15.68464,21.80807 32.26041,18.69481 -7.87657,16.45402 16.99534,8.84699 19.31235,19.18068 7.0886,4.96298 17.78135,32.92278 31.86538,23.08702 16.12587,7.36043 -2.77691,17.26065 -3.6869,25.14995 3.13951,10.47829 15.61463,11.53002 25.97288,10.20297 14.49396,6.14852 22.15884,4.19575 34.91441,-14.36591 9.28407,-15.33896 23.38346,-15.98076 18.33121,-34.43616 -14.30529,-12.8908 -22.40301,-10.38971 -33.84175,-27.07892 5.8041,-19.05412 -5.63206,-37.66686 -11.89528,-45.93606 14.64855,-8.41639 -4.93151,-28.78271 3.8265,-34.06251 -3.99078,-9.18968 -6.80461,-19.43725 -3.77469,-28.31015 -20.91577,-13.83323 10.9794,-35.94887 -11.79608,-36.87777 -3.2686,-21.8688 -26.13073,-19.62723 -28.73877,-7.40774 -3.35513,26.97605 -10.77025,7.82965 -21.13301,3.11508 1.63785,13.44632 -30.57938,15.17617 -28.35405,18.47841 -8.19185,-7.80385 -28.20016,1.3663 -19.75127,12.81638 13.99699,9.49539 -12.47426,4.43322 -20.25658,16.13859 -31.12222,18.54358 10.8248,9.471 5.37729,29.42713 -0.19543,12.31415 -10.22791,32.87973 -12.06503,29.83843 14.71318,14.01351 -9.98454,3.77798 -8.43241,12.42318 z"
       id="path3263"
       inkscape:connector-curvature="0" />
    <path
       style="fill:#f9f9f9;fill-rule:evenodd;stroke:#000000;stroke-width:0.2;stroke-linecap:butt;stroke-linejoin:miter;stroke-miterlimit:4;stroke-opacity:1;stroke-dasharray:none"
       d="m 33.125137,336.98025 c 11.758431,-3.99673 20.395295,-31.98422 35.890996,-17.4246 6.225697,7.2312 28.846103,-14.35336 20.944519,19.12354 -9.859613,24.85703 20.844518,18.93202 27.890608,10.61199 2.22807,-11.97372 6.38108,-27.01649 3.75955,-33.90565 19.68403,-1.24645 -1.65783,-15.24643 5.22315,-27.12508 -11.51104,-9.69642 7.66752,-16.60705 3.59912,-28.31015 -3.4292,-13.34066 13.62454,-44.55528 -8.64669,-46.43743 -12.69718,-1.17787 -15.00336,-3.15539 -13.82589,9.1295 -4.76173,5.39547 -24.526153,19.59533 -14.8354,23.3065 2.67976,14.6608 -4.912856,9.17971 -18.829546,11.54352 -7.601166,11.2327 -27.650448,10.80952 -22.604232,32.12875 -23.755294,-23.61693 -18.971918,5.10169 -16.283824,22.29698 -0.488442,9.2325 -3.474606,15.78768 -2.282361,25.06213 z"
       id="path3248"
       inkscape:connector-curvature="0" />
    <path
       style="fill:#f9f9f9;fill-rule:evenodd;stroke:#000000;stroke-width:0.2;stroke-linecap:butt;stroke-linejoin:miter;stroke-miterlimit:4;stroke-opacity:1;stroke-dasharray:none"
       d="m 130.03804,214.30291 c 8.86675,17.41238 -4.10143,34.1856 1.40456,50.08045 -5.87904,11.15819 -13.02049,19.29129 -0.77084,27.64079 17.52114,2.48791 38.78694,-4.07519 20.74645,-20.48995 -2.62832,-22.78394 14.77934,-10.99314 29.29468,-11.81323 18.76933,8.96187 32.70985,0.38292 13.01205,-17.89795 18.87245,1.13795 8.80937,-26.19114 0.96562,-30.41696 -0.2328,-25.88562 -20.29784,-1.24626 -21.24358,-13.56254 -15.39482,-6.45443 -20.6526,-17.61749 -39.56783,-7.63122 -7.5414,-14.37248 -13.6032,13.89898 -3.1388,23.73948 l -0.70227,0.35113 -4e-5,0 z"
       id="path3243"
       inkscape:connector-curvature="0" />
    <path
       style="fill:#f9f9f9;fill-rule:evenodd;stroke:#000000;stroke-width:0.2;stroke-linecap:butt;stroke-linejoin:miter;stroke-miterlimit:4;stroke-opacity:1;stroke-dasharray:none"
       d="m 190.78417,197.84352 c -4.69473,17.57181 19.11756,18.7294 12.72859,35.88301 -17.45918,8.65734 9.58818,19.5307 -5.88149,32.63196 0.81931,19.28309 1.63863,38.56619 2.45794,57.84928 -21.90471,-2.9563 -32.57415,3.18076 -14.22092,13.7381 11.36604,10.03314 -2.27037,16.52175 13.03584,14.92318 0.2829,18.09665 9.43529,15.22435 11.49963,27.78346 -10.42786,18.23639 5.73472,7.91193 16.43578,6.98991 19.82834,-2.44365 27.25486,0.82091 45.83601,4.70628 13.8059,-6.06853 24.59012,4.20156 36.79181,-7.78983 28.91564,11.50998 17.58074,-15.19034 2.45793,-20.58521 3.03456,-11.10348 5.08415,-21.18056 -6.69903,-28.3725 -16.25429,-2.70009 -17.56324,-53.97886 -13.09614,-36.76281 3.56533,-17.36 -20.29371,-24.40372 -30.7242,-30.24137 -22.70329,3.52634 -13.04913,6.90693 -26.33564,-11.43543 11.73114,-14.72954 16.13517,-25.27355 13.99597,-35.04386 -9.15821,-15.12947 1.15566,-14.76822 7.81882,-31.20903 -2.76033,-23.71524 -22.42867,-2.24652 -26.15946,-1.49234 -10.24475,18.06245 -19.29157,-12.66529 -33.1413,8.42721 -2.26654,-4e-5 -4.53367,5e-5 -6.80014,-10e-6 z"
       id="path3236"
       inkscape:connector-curvature="0" />
    <path
       style="fill:#f9f9f9;fill-rule:evenodd;stroke:#000000;stroke-width:0.2;stroke-linecap:butt;stroke-linejoin:miter;stroke-miterlimit:4;stroke-opacity:1;stroke-dasharray:none"
       d="m 248.50178,180.90132 c 14.87285,0.58671 5.98594,30.66389 -7.68105,26.5984 10.3895,17.49002 11.8365,19.74427 5.1174,34.63743 -18.23438,8.24806 -3.86036,36.44603 1.94916,29.00555 13.52822,-13.54778 25.02526,7.72349 38.84417,11.85074 13.7432,12.99445 -1.85094,24.67319 8.03219,38.80027 2.46614,16.92332 25.05917,16.21111 19.83906,32.69933 -11.91747,20.68174 14.62603,-5.56003 14.00146,8.4711 2.28334,4.54881 17.19228,-9.74565 33.56871,0.19283 -5.65689,-20.83824 21.37515,-1.29994 36.55663,-5.81748 21.14508,-3.2675 5.22254,17.08922 25.94667,8.22144 -5.49566,-13.96488 1.47599,-13.24996 6.69284,-29.30547 18.13848,-16.61226 -13.36052,-35.54374 -13.28112,-29.55152 11.0939,-6.43384 24.52788,-26.15407 35.08095,-16.90729 0.31802,-7.86114 -13.58148,-23.51421 6.53986,-23.17482 0.75872,-4.10259 1.80204,-28.45013 -8.73445,-28.74908 -6.33412,0.18695 -9.20849,-27.45228 -8.06045,-39.4829 -12.60425,-17.6562 -24.73866,-9.32802 -42.99479,-9.41247 -7.59893,-9.54579 -3.62364,-13.20406 -13.59725,-27.38843 -11.76391,15.11817 -13.23474,-8.73299 -24.84271,-11.67519 1.06514,-17.75693 -14.41056,-17.1402 -15.05487,-15.97657 -14.24612,-0.63466 -11.81789,-0.10805 -25.70233,3.59721 -14.09408,-8.16207 -25.55605,4.87299 -36.00944,3.16212 -7.58723,-1.04847 -26.77515,5.27207 -28.26625,13.16752 1.72678,11.30838 -8.33201,18.6097 -8.29553,25.58887 l 0.65838,1.31675 -0.30724,0.13168 0,-2e-5 z"
       id="AHUMADA"
       inkscape:connector-curvature="0" />
    <path
       style="fill:#f9f9f9;fill-rule:evenodd;stroke:#000000;stroke-width:0.2;stroke-linecap:butt;stroke-linejoin:miter;stroke-miterlimit:4;stroke-opacity:1;stroke-dasharray:none"
       d="m 359.76361,137.74748 c -7.07973,18.06879 18.95937,15.52584 13.65034,26.94952 15.10465,-6.13522 13.52896,6.68459 23.92098,11.89465 -11.47918,24.22227 24.40892,5.17626 32.32478,11.13715 18.32263,9.56013 11.50382,26.31735 16.43649,42.29862 -3.58207,15.66308 19.87242,4.79873 13.16333,28.29308 7.69567,19.33224 22.01044,11.91238 29.23849,1.35817 16.73718,-11.50154 11.76356,-8.34636 24.22823,3.29187 7.29911,-12.45026 4.19246,-26.00715 22.20921,-26.73005 10.4794,2.30701 30.45658,18.75332 24.3599,-4.87198 -14.42084,-14.41957 -19.36655,-22.20152 -37.30796,-33.18214 -24.70685,-9.42263 -36.41752,-15.44432 -53.32843,-34.36721 -8.00844,-9.30004 -32.56232,-40.51556 -42.13606,-32.17261 5.87567,14.32564 0.26483,14.52697 -10.84125,6.75932 -6.88519,-5.3204 -17.68001,-3.67922 -15.31821,-12.42134 -1.50407,-0.77924 1.20857,-17.13912 -4.87198,-26.730058 -16.01794,-9.963528 -31.54507,-11.285875 -31.77759,5.618138 0.60853,11.91751 2.03273,22.36489 -3.77469,32.34819 l -0.13167,0.5267 -0.0439,0 -10e-6,-2e-5 z"
       id="path2470"
       inkscape:connector-curvature="0" />
    <path
       style="fill:#f9f9f9;fill-rule:evenodd;stroke:#000000;stroke-width:0.2;stroke-linecap:butt;stroke-linejoin:miter;stroke-miterlimit:4;stroke-opacity:1;stroke-dasharray:none"
       d="m 123.27505,189.49582 c 10.50323,-2.82395 20.53204,-1.48799 34.89814,-2.55918 13.04219,12.58078 17.10812,19.96134 29.35933,10.8986 20.39848,-0.003 25.70255,-14.74035 38.71249,-1.53621 3.20235,-7.53027 18.879,-11.6161 19.88295,-19.00511 7.84366,-5.68238 11.62979,-15.94664 8.60275,-25.19384 9.65006,-8.28003 31.82654,-21.09313 29.38095,-15.36328 -8.11019,-10.29628 -25.24977,-29.20819 -2.25589,-34.36605 5.70236,-8.81228 34.55998,-3.06821 17.24944,-15.362097 -3.88559,-10.43329 3.65927,-28.53392 -12.20188,-20.629105 -14.13681,-2.463229 7.52524,-24.253791 -10.82084,-28.405387 -61.44058,-0.143822 -122.88115,-0.287643 -184.321729,-0.431465 1.113247,30.218853 -4.513193,61.459346 1.755668,90.811954 19.558311,11.31401 1.036405,25.16786 22.955371,26.37892 3.82486,9.5818 9.23219,25.96451 6.80321,33.92829 l 0,0.83395 4e-5,1e-5 z"
       id="path2463"
       inkscape:connector-curvature="0" />
    <path
       style="fill:#f9f9f9;fill-rule:evenodd;stroke:#000000;stroke-width:0.2;stroke-linecap:butt;stroke-linejoin:miter;stroke-miterlimit:4;stroke-opacity:1;stroke-dasharray:none"
       d="m 279.2662,37.981619 c 13.64121,10.653803 -7.13672,25.086238 8.64668,29.495228 17.16964,-11.817588 4.28209,14.038371 12.5969,19.882946 14.39545,13.532807 -14.24479,5.406162 -19.83904,15.669347 -22.93549,6.68524 -2.00543,25.33937 5.09144,36.43012 5.10408,6.74142 21.86537,-12.43609 34.72081,-1.92996 14.99484,-3.00825 10.06075,-3.89049 24.48912,-4.39046 6.46331,1.01908 12.10871,7.25285 19.18068,-0.5706 0.41765,-14.89425 -2.68205,-23.71175 2.32626,-40.16092 18.81233,8.25998 -0.53356,-20.131424 -8.29555,-27.476213 -5.89645,-22.756688 -23.90912,-25.040762 -43.23944,-26.884822 -11.89261,-0.02155 -23.78529,-0.04316 -35.67786,-0.06467 z"
       id="JUAREZ"
       inkscape:connector-curvature="0" />
    <path
       style="fill:#f9f9f9;fill-rule:evenodd;stroke:#000000;stroke-width:0.2;stroke-linecap:butt;stroke-linejoin:miter;stroke-miterlimit:4;stroke-opacity:1;stroke-dasharray:none"
       d="m 558.04852,646.43395 c -0.027,-0.10793 -0.22249,0 0,0 z"
       id="path2500"
       inkscape:connector-curvature="0" />
    <path
       style="fill:#f9f9f9;fill-rule:evenodd;stroke:#000000;stroke-width:0.2;stroke-linecap:butt;stroke-linejoin:miter;stroke-miterlimit:4;stroke-opacity:1;stroke-dasharray:none"
       d="m 108.14005,581.32479 c 0,0.13485 0,0.26969 0,0 z"
       id="path2473"
       inkscape:connector-curvature="0" />
    <path
       style="fill:#f9f9f9;fill-rule:evenodd;stroke:#000000;stroke-width:0.2;stroke-linecap:butt;stroke-linejoin:miter;stroke-miterlimit:4;stroke-opacity:1;stroke-dasharray:none"
       d="m 390.62354,808.18537 c -0.13266,-0.0663 0.29667,0 0,0 z"
       id="path2610"
       inkscape:connector-curvature="0" />
    <path
       style="fill:none;stroke:#000000;stroke-width:1;stroke-linecap:butt;stroke-linejoin:miter;stroke-miterlimit:4;stroke-opacity:1;stroke-dasharray:none"
       d="m 91.76939,37.537865 c -0.38457,23.36459 -0.77598,46.729124 -1.15625,70.093755 -25.21875,0.1875 -50.4375,0.375 -75.65625,0.5625 -7.167,21.32022 -31.52627,17.49128 -6.25,24.84375 -21.79503,7.30756 32.35641,27.84884 6.4821,26.77891 -9.45177,5.8984 -4.65486,24.90151 -27.20085,16.15859 -1.28787,24.33652 5.20298,33.26263 17.78125,47.96875 26.3122,3.41466 26.13006,20.84316 26.89253,35.72257 20.2779,17.6989 -4.86991,9.78401 0.95122,33.02743 3.59036,17.01326 -0.08584,38.17015 -1.5,51.21875 25.21213,11.34973 -3.94064,15.03418 -3.36865,27.75799 2.72745,16.75765 2.30589,24.13762 -7.8501,32.96076 16.20861,23.15711 -6.83874,25.44859 -6.4194,39.44737 13.43207,12.51218 1.41147,25.88937 6.84057,44.14827 8.65023,11.63713 6.11435,21.429 18.20383,26.87311 -7.37793,15.55439 13.48759,32.7586 8.30224,43.31875 6.99435,12.99705 -1.1063,24.65561 -13.02094,21.24375 -10.9574,5.52104 -27.40835,13.52146 -42.0625,10.34375 -12.21854,-5.8441 -25.90003,-9.08919 -21.90625,16.90625 -1.84666,23.48881 24.38543,28.74665 20.71875,47.375 -0.32155,15.93873 12.68694,12.19488 23.71875,28.125 -4.15707,14.53575 20.00813,21.84903 13.09934,36.05785 16.45752,16.16121 -4.26482,27.40396 0.80691,38.2859 9.92722,11.79562 16.12516,36.17316 11.25,30.5 13.67657,-0.0141 14.54339,-4.76732 29.625,-3.84375 6.13593,4.32214 12.69975,0.0789 22.5,-2.0625 -0.79662,11.87445 -7.29952,30.39646 8.3125,21.90625 2.57193,9.33986 25.72215,18.75598 17.75,33.75 -21.80031,8.90608 11.88106,15.22973 6.97314,31.91245 -18.03839,13.76835 17.61554,29.04892 15.80811,45.9938 13.58966,11.04056 16.89203,3.20269 32.50893,3.16436 11.36017,8.99012 24.34348,1.29844 32.4341,12.13604 13.96661,-2.48653 9.68366,23.53501 20.00303,32.27098 16.13196,8.30438 24.55858,23.01952 34.14057,29.50339 4.51756,0.98716 15.39341,17.84486 25.31054,19.04916 17.90696,-7.6336 28.28379,9.0401 35.72778,-14.71768 25.04233,-12.93935 6.20101,-1.44 0.0285,-11.64623 3.10648,-17.18028 -1.87823,-38.57571 16.15482,-35.32222 1.07717,-9.8301 -0.0901,-22.10834 4.50416,-33.8753 3.65957,-8.80044 9.82581,-21.01774 19.53125,-28.40625 -6.07436,-8.16291 10.96925,-15.69007 0.625,-26.9375 10.72403,-7.846 7.25085,-30.92058 21.30147,-25.71964 -16.32724,-15.86443 7.35362,-3.1781 11.82348,-21.37411 12.25069,15.64881 17.65565,12.49032 28.15625,16.84375 7.55201,22.0167 13.76381,-7.08825 24.77396,19.32218 14.80023,-12.98695 5.57336,-0.72316 22.99588,11.65045 5.52333,7.16424 22.56613,-3.15463 23.92853,8.61695 6.3525,9.56473 28.19479,-13.42948 36.2926,2.73368 7.57446,14.93767 23.38383,-13.59756 32.66533,-5.88576 15.74967,-8.66746 21.78222,23.87104 34.96875,18.375 12.78725,14.57074 14.35706,-21.94631 20.67652,-32.13723 14.85511,-10.84738 26.33597,-20.65072 17.46026,-33.89022 9.23464,-11.44946 20.53182,11.89715 38.12435,10.10867 6.44034,-9.90828 28.16989,-1.04777 43.29644,1.03613 17.91468,0.90377 -18.94605,-22.3101 -13.74882,-29.53154 16.07141,-13.48152 8.79202,-23.94635 5.25375,-43.22678 -4.06027,-19.24167 -17.41803,-18.71807 -11.12708,-36.7871 7.38201,-12.77533 -0.56185,-30.65869 -2.77917,-40.54068 1.25575,-15.11291 -6.82931,-33.70679 -3,-44.6875 7.63987,-18.76053 8.8813,-29.28538 19.63575,-48.13915 10.98774,-15.87541 17.10063,-27.84266 20.958,-43.36085 5.81964,-14.45559 11.2872,-5.52482 21.96587,-26.60353 11.5026,-16.16054 12.19226,-25.7726 25.72168,-40.64647 -10.65259,-4.2477 -28.3224,-17.71487 -40.00005,-24.5625 -22.09716,-0.62433 -25.82963,-22.21814 -48.28125,-24.59375 -20.40325,0.2024 -34.7343,-17.09322 -43.71034,-29.4665 -19.35386,-11.04834 -45.39215,-18.26295 -46.88341,-45.43975 -16.45447,-17.68381 -23.28417,-38.46521 -16.59375,-60.15625 -8.44135,-20.39214 -25.70214,-34.72575 -26.1875,-48.03125 2.50495,-16.50097 -15.381,-24.21498 -21.21875,-34.875 -13.76666,-13.27332 -45.81365,-18.11016 -53,-31.125 -21.82735,-13.43386 -32.42092,-37.62545 -56.84375,-50.65625 -15.84269,-16.87636 -21.94665,-28.196825 -43.5625,-32.562505 -20.20096,-8.893605 -22.41891,-31.312633 -37,-46.78125 C 335.62692,39.784795 319.69789,36.368979 299.02258,38.013622 229.93815,37.87013 160.85379,37.694264 91.76939,37.537865 z m 652.6875,498.468755 -0.0625,0.125 0.0625,-0.125 z m -141.5,355.625 -0.125,0.1875 0.125,-0.1875 z m -44.34375,-647.75 c -1.0905,0.29963 -1.05826,0.16419 0,0 z"
       id="path3397"
       inkscape:connector-curvature="0" />
    <path
       style="fill:none;stroke:#000000;stroke-width:1.99566495;stroke-linecap:round;stroke-miterlimit:4;stroke-opacity:1;stroke-dasharray:none;stroke-dashoffset:0"
       d="m -219.72653,-6.6205525 c 394.14547,0 788.29093,0 1182.4364,0 0,353.8414325 0,707.6828625 0,1061.5242525 -394.14547,0 -788.29093,0 -1182.4364,0 0,-353.84139 0,-707.68282 0,-1061.5242525 z"
       id="rect4908"
       inkscape:connector-curvature="0" />
  </g>
</svg>
